<?xml version="1.0" encoding="UTF-8"?><svg id="uuid-4db8b24e-ded4-4731-8a4c-6c384b9ac3a5" xmlns="http://www.w3.org/2000/svg" width="194.79mm" height="141.76mm" xmlns:xlink="http://www.w3.org/1999/xlink" viewBox="0 0 552.15 401.85"><defs><linearGradient id="uuid-16290eb7-ead6-4ed0-ac04-7181954a3fbf" x1="0" y1="162.46" x2="302.98" y2="162.46" gradientUnits="userSpaceOnUse"><stop offset="0" stop-color="#fafafa"/><stop offset="0" stop-color="#fff"/><stop offset="1" stop-color="#586e5a"/><stop offset="1" stop-color="#f2f2f2"/><stop offset="1" stop-color="#e8e8e8"/><stop offset="1" stop-color="#1d1d1b"/></linearGradient><linearGradient id="uuid-69b6c6ac-80df-4763-9129-73d60ce8ec8d" x1="310.62" y1="248.62" x2="552.15" y2="248.62" xlink:href="#uuid-16290eb7-ead6-4ed0-ac04-7181954a3fbf"/></defs><path d="M157.79,324.9c-8.78.09-17.62-.44-26.23-1.33-25.19-2.59-50.75-8.03-71.31-21.02-22.36-14.12-36.86-35.99-46.24-58.67C-22.45,155.77,11.83,39.12,121.85,7.32c46.31-13.39,99.19-8.21,140.97,13.8,2.74,1.44,5.56,3.08,6.96,5.6,1.62,2.92.97,6.38.28,9.57-4.02,18.71-8.05,37.42-12.07,56.13-4.6-25.14-18.01-49.65-40.56-65.76-22.55-16.11-54.8-22.65-81.95-13.43-32.2,10.93-51.96,44.33-43.62,73.64,6.48,22.8,27.52,40.96,51.87,50.92,24.35,9.96,51.76,12.65,78.64,12.91,26.88.26,53.77-1.76,80.62-.62-20.12,20.84-27.68,49.02-28.59,76.28-.91,27.26,4.16,54.37,6.23,81.58-9.9-12.44-19.8-24.89-29.7-37.33-10.26,15.14-21.02,30.74-37.51,40.83-16.09,9.85-35.72,13.27-55.62,13.47ZM158.77,321.73c38.62-.72,74.14-23.12,87.4-69.1,9.04-31.34,5.65-64.48,1.08-96.63-29.69,1.55-59.96,1.54-88.51-6.1-28.55-7.64-55.49-23.83-69.41-48.01-13.92-24.18-12.13-56.77,8.66-76.34-7.98,7.47-20.03,10.76-28.24,18.17-10.44,9.42-18.65,22.57-25.4,34.38-14.01,24.53-22.05,51.98-22.94,79.7-1.42,44.35,15.5,89,46.59,122.92,25.27,27.57,59.07,41.59,90.77,41Z" fill="url(#uuid-16290eb7-ead6-4ed0-ac04-7181954a3fbf)"/><path d="M502.07,387.33c-7.66-2.96-15.13-6.41-22.35-9.88-17.27-8.3-34.95-17.43-45.83-31.79-14.86-19.62-13.98-44.29-25.45-65.11-6.42-11.65-15.65-22.02-26.06-31.15-2.52-2.21-30.7-24.74-32.46-23.43,30.89-23.02,58.3-49.39,88.43-73.17,30.13-23.78,63.73-45.3,102.39-56.12-34.12-1.4-68.29-1.65-102.43-.76,9.94,3.99,21.51,10.32,20.68,19.86-.46,5.29-4.81,9.61-8.97,13.47-37.13,34.48-76.87,66.8-118.87,96.7-2.71-14.73-2.63-30.23,3.61-44.12,6.24-13.89,19.4-25.93,36.02-29.36-4.12.85-10.76-.83-15.05-1.07-5.94-.33-11.88-.57-17.82-.7-6.67-.15-21.66-2.94-25.37,3.22-3.78,6.28-.78,19.41-.81,26.36-.03,10.13-.07,20.26-.1,30.38-.13,40.51-.26,81.03-.39,121.54-.06,19.45-.13,38.89-.19,58.34,23.71.94,47.43,1.88,71.14,2.81-20.27-5.1-32.98-22.68-40.17-40.02-15.46-37.26-13.99-78.05-11.77-117.64,20.04,7.13,40.45,15.41,54.43,29.84,24.32,25.1,23.47,62.19,41.54,91.04,11.7,18.68,31.5,33.37,54.49,40.42,22.99,7.05,48.95,6.4,71.44-1.79-17.1,2.4-33.99-1.66-50.08-7.88Z" fill="url(#uuid-69b6c6ac-80df-4763-9129-73d60ce8ec8d)"/></svg>